<?xml version="1.0" encoding="UTF-8"?>
<svg width="18px" height="22px" viewBox="0 0 18 22" version="1.1" xmlns="http://www.w3.org/2000/svg"
  xmlns:xlink="http://www.w3.org/1999/xlink">
  <!-- Generator: sketchtool 58 (101010) - https://sketch.com -->
  <title>2C6919D2-7085-45FE-8B68-603E365AE593</title>
  <desc>Created with sketchtool.</desc>
  <g id="Fora-de-área/fechado---Fluxo-de-endereço" stroke="none" stroke-width="1" fill="none" fill-rule="evenodd">
    <g id="MOB-Adress_error_logged" transform="translate(-267.000000, -29.000000)">
      <g id="header/mob/logged-in-erro">
        <g id="header/profile-logged-in">
          <g id="sacola" transform="translate(264.000000, 20.000000)">
            <g id="Group" transform="translate(0.000000, 8.000000)">
              <g id="icon/bag-yellow-icon/system/dark/bag">
                <rect id="Rectangle-4" x="0" y="0" width="24" height="24"></rect>
                <g id="Group-8" transform="translate(3.000000, 1.000000)" fill="#FFFFFF" fill-rule="nonzero">
                  <path
                    d="M16.9714286,21.8571452 L1.02857143,21.8571452 C0.814266673,21.8576686 0.609401197,21.7690234 0.463072471,21.6124516 C0.316743745,21.4558799 0.242140834,21.2454939 0.257142857,21.0317143 L1.28571429,6.63171429 C1.31412062,6.22688751 1.65132191,5.91329031 2.05714286,5.91428335 L15.9428571,5.91428335 C16.3486781,5.91329031 16.6858794,6.22688751 16.7142857,6.63171429 L17.7428571,21.0317143 C17.7578592,21.2454939 17.6832563,21.4558799 17.5369275,21.6124516 C17.3905988,21.7690234 17.1857333,21.8576686 16.9714286,21.8571452 L16.9714286,21.8571452 Z M1.85657143,20.3142857 L16.1434286,20.3142857 L15.2254286,7.45714286 L2.77457143,7.45714286 L1.85657143,20.3142857 Z"
                    id="Shape"></path>
                  <path
                    d="M12.6,5.14285714 C12.1739518,5.14285714 11.8285714,4.79747681 11.8285714,4.37142857 C11.8285714,2.80925171 10.5621769,1.54285714 9,1.54285714 C7.43782314,1.54285714 6.17142857,2.80925171 6.17142857,4.37142857 C6.17142857,4.79747681 5.82604824,5.14285714 5.4,5.14285714 C4.97395176,5.14285714 4.62857143,4.79747681 4.62857143,4.37142857 C4.62857143,1.95715528 6.58572671,1.13562095e-07 9,1.13562095e-07 C11.4142733,1.13562095e-07 13.3714286,1.95715528 13.3714286,4.37142857 C13.3714286,4.79747681 13.0260482,5.14285714 12.6,5.14285714 Z"
                    id="Shape"></path>
                  <path
                    d="M5.4,11.3142857 C4.97395176,11.3142857 4.62857143,10.9689054 4.62857143,10.5428571 L4.62857143,4.37142857 C4.62857143,3.94538034 4.97395176,3.6 5.4,3.6 C5.82604824,3.6 6.17142857,3.94538034 6.17142857,4.37142857 L6.17142857,10.5428571 C6.17142857,10.9689054 5.82604824,11.3142857 5.4,11.3142857 L5.4,11.3142857 Z"
                    id="Shape"></path>
                  <path
                    d="M12.6,11.3142857 C12.1739518,11.3142857 11.8285714,10.9689054 11.8285714,10.5428571 L11.8285714,4.37142857 C11.8285714,3.94538034 12.1739518,3.6 12.6,3.6 C13.0260482,3.6 13.3714286,3.94538034 13.3714286,4.37142857 L13.3714286,10.5428571 C13.3714286,10.9689054 13.0260482,11.3142857 12.6,11.3142857 L12.6,11.3142857 Z"
                    id="Shape"></path>
                </g>
              </g>
            </g>
          </g>
        </g>
      </g>
    </g>
  </g>
</svg>